<?xml version="1.0" standalone="no"?><!DOCTYPE svg PUBLIC "-//W3C//DTD SVG 1.1//EN" "http://www.w3.org/Graphics/SVG/1.1/DTD/svg11.dtd"><svg t="1635473821408" class="icon" viewBox="0 0 1024 1024" version="1.1" xmlns="http://www.w3.org/2000/svg" p-id="12104" xmlns:xlink="http://www.w3.org/1999/xlink" width="32" height="32"><defs><style type="text/css"></style></defs><path d="M698.8 641.2L508 832 317.2 641.2C173.6 647.1 60.2 765.1 60 908.8V928c0 53 43 96 96 96h704c53 0 96-43 96-96v-19.2c-0.2-143.7-113.6-261.7-257.2-267.6zM547.8 4.7l380.8 92c36.4 8.9 36.4 54.2 0 63L736 206c17.4 34.4 28 72.8 28 114 0 141.4-114.6 256-256 256S252 461.4 252 320c0-41.2 10.8-79.6 28-114l-132-31.8v105.2c14.6 8.3 23.7 23.8 24 40.6-0.2 16-8.6 30.9-22.2 39.4L181 484c3.4 13.8-4.2 28-15.2 28H82.3c-11 0-18.6-14.2-15.2-28l31.2-124.6c-13.7-8.5-22-23.3-22.3-39.4 0-17.6 10-32.2 24-40.6V162.7l-12.8-3.1c-36.2-8.8-36.2-54.4 0-63.2L468.4 4.7c26-6.3 53.4-6.3 79.4 0z" p-id="12105" fill="#44A7DF"></path></svg>